<svg width="24" height="24" viewBox="0 0 24 24" fill="none" xmlns="http://www.w3.org/2000/svg">
<path d="M17.55 3C16.2 3 13.5 3.75 12 6.15C10.5 3.75 7.8 3 6.3 3C2.85 3 0 5.85 0 9.3C0 15.3 11.1 22.05 11.55 22.35L12 22.65L12.45 22.35C12.9 22.05 24 15.15 24 9.3C24 5.85 21.15 3 17.55 3ZM12 20.85C8.7 18.75 1.5 13.35 1.5 9.3C1.5 6.6 3.75 4.5 6.3 4.5C6.45 4.5 10.05 4.65 11.25 8.1L12 10.2L12.75 8.1C13.95 4.65 17.55 4.5 17.7 4.5C20.25 4.5 22.5 6.6 22.5 9.3C22.5 13.35 15.3 18.75 12 20.85Z" fill="black"/>
</svg>
