<svg width="51" height="51" viewBox="0 0 51 51" fill="none" xmlns="http://www.w3.org/2000/svg">
<path d="M47 27C47 39.7025 36.7025 50 24 50C11.2975 50 1 39.7025 1 27C1 14.2975 11.2975 4 24 4C36.7025 4 47 14.2975 47 27Z" fill="#FFFEFE" stroke="black" stroke-width="2"/>
<path d="M47 27C47 39.7025 36.7025 50 24 50C11.2975 50 1 39.7025 1 27C1 14.2975 11.2975 4 24 4C36.7025 4 47 14.2975 47 27Z" stroke="black" stroke-width="2"/>
<g clip-path="url(#clip0)">
<path d="M13.1577 17.4736V36.421H36.8419V17.4736H13.1577ZM24.0525 28.8026C24.3263 29.0063 24.6585 29.1163 24.9998 29.1163C25.3411 29.1163 25.6733 29.0063 25.9472 28.8026L27.1051 27.9342L35.263 34.0526V34.8421H14.7367V34.0526L22.8945 27.9342L24.0525 28.8026ZM24.9998 27.5394L14.7367 19.8421V19.0526H35.263V19.8421L24.9998 27.5394ZM14.7367 21.8157L21.5788 26.9473L14.7367 32.0789V21.8157ZM35.263 32.0789L28.4209 26.9473L35.263 21.8157V32.0789Z" fill="black"/>
</g>
<path fill-rule="evenodd" clip-rule="evenodd" d="M35 3.5L32 6.5C34.8333 9.83333 40.5 16.6 40.5 17C40.5 17.4 43.8333 14.5 45.5 13L45.2149 12.7421L50 7L47 3.5H35Z" fill="#F7F7F7"/>
<path d="M47.25 2.5H34.75L31 6.875L41 18.75L51 6.875L47.25 2.5ZM36.8 6.25H33.1875L35.0875 4.025L36.8 6.25ZM39.025 6.25L41 3.95L42.975 6.25H39.025ZM43.5 7.5L41 15.85L38.5 7.5H43.5ZM37.575 7.5L39.9375 15.55L33.1625 7.5H37.575ZM44.4375 7.5H48.85L42.0625 15.55L44.4375 7.5ZM45.2125 6.25L46.925 4.025L48.8125 6.25H45.1875H45.2125ZM46 3.75L44.2 6.0125L42.375 3.75H46ZM37.7875 6.0375L36 3.75H39.625L37.7875 6.0375Z" fill="black"/>
<defs>
<clipPath id="clip0">
<rect width="24" height="19.5789" fill="white" transform="translate(13 17)"/>
</clipPath>
</defs>
</svg>
