<svg width="51" height="51" viewBox="0 0 51 51" fill="none" xmlns="http://www.w3.org/2000/svg">
<path d="M47 27C47 39.7025 36.7025 50 24 50C11.2975 50 1 39.7025 1 27C1 14.2975 11.2975 4 24 4C36.7025 4 47 14.2975 47 27Z" fill="#FFFEFE" stroke="black" stroke-width="2"/>
<path d="M47 27C47 39.7025 36.7025 50 24 50C11.2975 50 1 39.7025 1 27C1 14.2975 11.2975 4 24 4C36.7025 4 47 14.2975 47 27Z" stroke="black" stroke-width="2"/>
<path fill-rule="evenodd" clip-rule="evenodd" d="M24 15C17.3726 15 12 20.3726 12 27C12 33.6274 17.3726 39 24 39C30.6274 39 36 33.6274 36 27C36 20.3726 30.6274 15 24 15ZM25.6687 23.8656C26.5188 23.8745 27.4039 23.8481 28.2326 23.8788C28.2048 24.7627 28.2262 25.6956 28.2192 26.6004C27.3691 26.6004 26.5188 26.6004 25.6687 26.6004C25.6687 29.4007 25.6687 32.2013 25.6687 35.0016C24.4723 35.0016 23.2757 35.0016 22.0793 35.0016C22.0793 32.2056 22.0793 29.4096 22.0793 26.6136C21.3343 26.5829 20.5322 26.609 19.7652 26.6004C19.7652 25.6889 19.7652 24.7774 19.7652 23.8656C20.5277 23.8656 21.2904 23.8656 22.0529 23.8656C22.0867 23.1487 22.0423 22.5038 22.0925 21.9199C22.141 21.355 22.3303 20.8711 22.6051 20.4605C23.1271 19.681 23.9971 19.0697 25.169 19.0145C26.1379 18.9686 27.2198 19.0378 28.2326 19.0277C28.2238 19.9349 28.2499 20.8771 28.2192 21.7625C27.708 21.7918 27.1937 21.7234 26.7468 21.7625C26.2915 21.8021 25.9618 22.0834 25.8 22.4198C25.6193 22.7957 25.673 23.2939 25.6687 23.8656Z" fill="black"/>
<path fill-rule="evenodd" clip-rule="evenodd" d="M35 3.5L32 6.5C34.8333 9.83333 40.5 16.6 40.5 17C40.5 17.4 43.8333 14.5 45.5 13L45.2149 12.7421L50 7L47 3.5H35Z" fill="#F7F7F7"/>
<path d="M47.25 2.5H34.75L31 6.875L41 18.75L51 6.875L47.25 2.5ZM36.8 6.25H33.1875L35.0875 4.025L36.8 6.25ZM39.025 6.25L41 3.95L42.975 6.25H39.025ZM43.5 7.5L41 15.85L38.5 7.5H43.5ZM37.575 7.5L39.9375 15.55L33.1625 7.5H37.575ZM44.4375 7.5H48.85L42.0625 15.55L44.4375 7.5ZM45.2125 6.25L46.925 4.025L48.8125 6.25H45.1875H45.2125ZM46 3.75L44.2 6.0125L42.375 3.75H46ZM37.7875 6.0375L36 3.75H39.625L37.7875 6.0375Z" fill="black"/>
</svg>
