<svg width="51" height="51" viewBox="0 0 51 51" fill="none" xmlns="http://www.w3.org/2000/svg">
<path d="M47 27C47 39.7025 36.7025 50 24 50C11.2975 50 1 39.7025 1 27C1 14.2975 11.2975 4 24 4C36.7025 4 47 14.2975 47 27Z" fill="#FFFEFE" stroke="black" stroke-width="2"/>
<path d="M47 27C47 39.7025 36.7025 50 24 50C11.2975 50 1 39.7025 1 27C1 14.2975 11.2975 4 24 4C36.7025 4 47 14.2975 47 27Z" stroke="black" stroke-width="2"/>
<path fill-rule="evenodd" clip-rule="evenodd" d="M24.0318 29.0124C25.0084 29.0049 25.9053 28.1896 25.9624 27.1802C26.039 25.83 24.8805 24.9907 23.7374 25.1515C22.8962 25.27 22.2851 25.8432 22.1013 26.6894C21.8176 27.9967 22.9362 29.021 24.0318 29.0124Z" fill="black"/>
<path fill-rule="evenodd" clip-rule="evenodd" d="M29.1196 21.3845H27.6168C27.4 21.3845 27.2241 21.5604 27.2241 21.7772V23.28C27.2241 23.497 27.3998 23.6727 27.6168 23.6727H29.1196C29.3364 23.6727 29.5123 23.497 29.5123 23.28V21.7772C29.5123 21.5604 29.3364 21.3845 29.1196 21.3845Z" fill="black"/>
<path fill-rule="evenodd" clip-rule="evenodd" d="M24 15C17.3726 15 12 20.3726 12 27C12 33.6274 17.3726 39 24 39C30.6274 39 36 33.6274 36 27C36 20.3726 30.6274 15 24 15ZM30.7392 30.6482C30.7392 31.5655 30.5726 32.2526 30.0847 32.8078C29.6532 33.299 29.0791 33.6924 28.2523 33.7567C26.9069 33.8616 25.4645 33.7567 24.0314 33.7567C22.6531 33.7567 21.197 33.8575 19.8108 33.7567C18.4428 33.6571 17.3954 32.6515 17.2913 31.2372C17.1535 29.3633 17.3942 27.1553 17.2913 25.1515C17.2901 25.0956 17.3155 25.0668 17.3568 25.0534C18.6218 25.0534 19.8871 25.0534 21.1522 25.0534C21.2662 25.1364 21.0518 25.2977 20.9885 25.4131C20.7314 25.8835 20.5363 26.6218 20.5961 27.4092C20.7154 28.9829 22.062 30.3626 23.7698 30.4846C25.0284 30.5748 26.0213 29.9813 26.6491 29.2087C27.2155 28.5115 27.696 27.2892 27.271 26.0023C27.2146 25.831 27.1241 25.6723 27.042 25.5115C26.9659 25.3625 26.855 25.2151 26.8457 25.0534C28.1326 25.0534 29.4197 25.0534 30.7066 25.0534C30.7666 27.0156 30.7392 28.8223 30.7392 30.6482ZM21.3487 27.1147C21.3314 26.2565 21.7253 25.5499 22.134 25.1515C22.5432 24.7526 23.0484 24.486 23.8354 24.4318C25.2878 24.3319 26.5087 25.362 26.6491 26.7221C26.803 28.2108 25.7518 29.531 24.4243 29.6995C24.1762 29.731 23.8548 29.7274 23.6062 29.6995C22.4297 29.5673 21.3763 28.4981 21.3487 27.1147ZM30.7392 24.6607C29.6568 24.6607 28.6658 24.6607 27.5652 24.6607C27.2227 24.6607 26.8102 24.731 26.5183 24.6607C26.3254 24.6142 26.2267 24.4253 26.0604 24.301C25.542 23.9138 24.7279 23.5733 23.7046 23.6465C22.9531 23.7005 22.4549 23.9705 21.9703 24.3336C21.8426 24.4296 21.6569 24.6242 21.5124 24.6607C21.2249 24.7337 20.797 24.6607 20.4326 24.6607C19.3915 24.6607 18.3965 24.6607 17.2915 24.6607C17.3465 23.862 17.2042 23.0981 17.3244 22.4357C17.4701 21.6324 17.9467 21.0838 18.4368 20.767C18.4368 21.6941 18.4308 23.5795 18.4308 23.5795L18.9605 23.5807C18.9605 23.5807 18.9168 21.4212 18.9931 20.4398C19.0714 20.3654 19.2451 20.3863 19.3202 20.309C19.3966 21.3235 19.3891 23.5798 19.3891 23.5798L19.9092 23.581C19.9092 23.581 19.9092 21.4214 19.9092 20.3417C19.9066 20.2954 19.9039 20.249 19.9418 20.2435C20.051 20.2435 20.1602 20.2435 20.2692 20.2435C20.2692 21.3449 20.2702 23.5795 20.2702 23.5795L20.8253 23.5807C20.8253 23.5807 20.8253 21.3557 20.8253 20.2435C23.075 20.3546 25.9812 20.0954 28.1873 20.2435C29.057 20.3018 29.7612 20.7283 30.1829 21.258C30.8018 22.0344 30.7687 23.1521 30.7392 24.6607Z" fill="black"/>
<path fill-rule="evenodd" clip-rule="evenodd" d="M35 3.5L32 6.5C34.8333 9.83333 40.5 16.6 40.5 17C40.5 17.4 43.8333 14.5 45.5 13L45.2149 12.7421L50 7L47 3.5H35Z" fill="#F7F7F7"/>
<path d="M47.25 2.5H34.75L31 6.875L41 18.75L51 6.875L47.25 2.5ZM36.8 6.25H33.1875L35.0875 4.025L36.8 6.25ZM39.025 6.25L41 3.95L42.975 6.25H39.025ZM43.5 7.5L41 15.85L38.5 7.5H43.5ZM37.575 7.5L39.9375 15.55L33.1625 7.5H37.575ZM44.4375 7.5H48.85L42.0625 15.55L44.4375 7.5ZM45.2125 6.25L46.925 4.025L48.8125 6.25H45.1875H45.2125ZM46 3.75L44.2 6.0125L42.375 3.75H46ZM37.7875 6.0375L36 3.75H39.625L37.7875 6.0375Z" fill="black"/>
</svg>
