<svg width="51" height="51" viewBox="0 0 51 51" fill="none" xmlns="http://www.w3.org/2000/svg">
<path d="M47 27C47 39.7025 36.7025 50 24 50C11.2975 50 1 39.7025 1 27C1 14.2975 11.2975 4 24 4C36.7025 4 47 14.2975 47 27Z" fill="#FFFEFE" stroke="black" stroke-width="2"/>
<path d="M47 27C47 39.7025 36.7025 50 24 50C11.2975 50 1 39.7025 1 27C1 14.2975 11.2975 4 24 4C36.7025 4 47 14.2975 47 27Z" stroke="black" stroke-width="2"/>
<path fill-rule="evenodd" clip-rule="evenodd" d="M35 3.5L32 6.5C34.8333 9.83333 40.5 16.6 40.5 17C40.5 17.4 43.8333 14.5 45.5 13L45.2149 12.7421L50 7L47 3.5H35Z" fill="#F7F7F7"/>
<path d="M47.25 2.5H34.75L31 6.875L41 18.75L51 6.875L47.25 2.5ZM36.8 6.25H33.1875L35.0875 4.025L36.8 6.25ZM39.025 6.25L41 3.95L42.975 6.25H39.025ZM43.5 7.5L41 15.85L38.5 7.5H43.5ZM37.575 7.5L39.9375 15.55L33.1625 7.5H37.575ZM44.4375 7.5H48.85L42.0625 15.55L44.4375 7.5ZM45.2125 6.25L46.925 4.025L48.8125 6.25H45.1875H45.2125ZM46 3.75L44.2 6.0125L42.375 3.75H46ZM37.7875 6.0375L36 3.75H39.625L37.7875 6.0375Z" fill="black"/>
<path fill-rule="evenodd" clip-rule="evenodd" d="M25 15C18.3726 15 13 20.3726 13 27C13 33.6274 18.3726 39 25 39C31.6274 39 37 33.6274 37 27C37 20.3726 31.6274 15 25 15ZM21.6436 33.0713C20.7998 33.0713 19.9559 33.0713 19.1123 33.0713C19.1123 30.3823 19.1123 27.6934 19.1123 25.0044C19.1106 24.9778 19.1092 24.9511 19.1313 24.948C19.9686 24.948 20.8065 24.948 21.6438 24.948C21.6436 27.6554 21.6436 30.3634 21.6436 33.0713ZM19.5467 23.6064C19.1536 23.3383 18.8421 22.7926 18.9234 22.1518C18.9834 21.6775 19.331 21.265 19.6979 21.0749C19.8232 21.0101 19.9902 20.9654 20.1702 20.9429C21.1283 20.8212 21.8594 21.4958 21.8514 22.3975C21.8418 23.5147 20.56 24.2974 19.5467 23.6064ZM31.0895 33.0713C30.2457 33.0713 29.4018 33.0713 28.558 33.0713C28.558 32.1626 28.558 31.1998 28.558 30.1618C28.558 28.9318 28.714 27.5198 27.8968 27.1015C27.4936 26.8954 26.926 26.9465 26.5742 27.1015C25.653 27.5081 25.743 28.7993 25.743 30.2186C25.743 31.205 25.743 32.2282 25.743 33.0715C24.9054 33.0715 24.0681 33.0715 23.2305 33.0715C23.2305 30.3636 23.2305 27.6559 23.2305 24.948C24.0366 24.948 24.8426 24.948 25.6487 24.948C25.6487 25.3195 25.6487 25.691 25.6487 26.0626C25.7382 25.993 25.775 25.8833 25.8376 25.7981C26.261 25.2226 27.0342 24.7474 28.029 24.7402C29.2811 24.731 30.1578 25.1635 30.6172 25.9682C31.0943 26.8044 31.0895 27.9946 31.0895 29.2932C31.0895 30.5381 31.0895 31.8751 31.0895 33.0713Z" fill="black"/>
</svg>
