<svg width="51" height="51" viewBox="0 0 51 51" fill="none" xmlns="http://www.w3.org/2000/svg">
<path d="M47 27C47 39.7025 36.7025 50 24 50C11.2975 50 1 39.7025 1 27C1 14.2975 11.2975 4 24 4C36.7025 4 47 14.2975 47 27Z" fill="#FFFEFE" stroke="black" stroke-width="2"/>
<path d="M47 27C47 39.7025 36.7025 50 24 50C11.2975 50 1 39.7025 1 27C1 14.2975 11.2975 4 24 4C36.7025 4 47 14.2975 47 27Z" stroke="black" stroke-width="2"/>
<path fill-rule="evenodd" clip-rule="evenodd" d="M35 3.5L32 6.5C34.8333 9.83333 40.5 16.6 40.5 17C40.5 17.4 43.8333 14.5 45.5 13L45.2149 12.7421L50 7L47 3.5H35Z" fill="#F7F7F7"/>
<path d="M47.25 2.5H34.75L31 6.875L41 18.75L51 6.875L47.25 2.5ZM36.8 6.25H33.1875L35.0875 4.025L36.8 6.25ZM39.025 6.25L41 3.95L42.975 6.25H39.025ZM43.5 7.5L41 15.85L38.5 7.5H43.5ZM37.575 7.5L39.9375 15.55L33.1625 7.5H37.575ZM44.4375 7.5H48.85L42.0625 15.55L44.4375 7.5ZM45.2125 6.25L46.925 4.025L48.8125 6.25H45.1875H45.2125ZM46 3.75L44.2 6.0125L42.375 3.75H46ZM37.7875 6.0375L36 3.75H39.625L37.7875 6.0375Z" fill="black"/>
<path d="M18.4302 25.4173L15.6862 28.1613C14.5609 29.2866 13.9287 30.8128 13.9287 32.4043C13.9287 33.9957 14.5609 35.5219 15.6862 36.6473C16.8115 37.7726 18.3378 38.4048 19.9292 38.4048C21.5207 38.4048 23.0469 37.7726 24.1722 36.6473L27.8282 32.9893C28.5068 32.3106 29.0127 31.479 29.3034 30.5643C29.5941 29.6497 29.6612 28.6787 29.4989 27.7327C29.3367 26.7868 28.9499 25.8936 28.3711 25.1281C27.7922 24.3625 27.0382 23.7471 26.1722 23.3333L25.0002 24.5053C24.8812 24.6244 24.7777 24.7582 24.6922 24.9033C25.3613 25.0956 25.9685 25.4592 26.454 25.9582C26.9395 26.4571 27.2863 27.0741 27.4602 27.7482C27.6341 28.4223 27.6291 29.1301 27.4457 29.8016C27.2622 30.4732 26.9067 31.0852 26.4142 31.5773L22.7602 35.2333C22.0097 35.9838 20.9917 36.4055 19.9302 36.4055C18.8688 36.4055 17.8508 35.9838 17.1002 35.2333C16.3497 34.4827 15.928 33.4647 15.928 32.4033C15.928 31.3418 16.3497 30.3238 17.1002 29.5733L18.6862 27.9893C18.4624 27.1507 18.376 26.2814 18.4302 25.4153V25.4173Z" fill="black"/>
<path d="M20.424 26.2535L20.758 25.9195C21.2535 25.4222 21.8718 25.0648 22.55 24.8835C22.7313 24.2053 23.0887 23.587 23.586 23.0915L23.92 22.7575C22.914 22.701 21.9098 22.8983 21 23.3315C20.56 24.2515 20.368 25.2575 20.424 26.2515V26.2535Z" fill="black"/>
<path d="M22.1721 21.6774C21.4935 22.3561 20.9876 23.1877 20.6969 24.1023C20.4062 25.017 20.3391 25.988 20.5014 26.934C20.6636 27.8799 21.0504 28.7731 21.6292 29.5386C22.2081 30.3041 22.9621 30.9196 23.8281 31.3334L25.3781 29.7814C24.7 29.5995 24.0817 29.2424 23.5854 28.7458C23.089 28.2493 22.7321 27.6308 22.5505 26.9527C22.3689 26.2745 22.369 25.5605 22.5508 24.8823C22.7326 24.2042 23.0896 23.5858 23.5861 23.0894L27.2401 19.4334C27.9907 18.6829 29.0086 18.2612 30.0701 18.2612C31.1316 18.2612 32.1495 18.6829 32.9001 19.4334C33.6507 20.184 34.0723 21.202 34.0723 22.2634C34.0723 23.3249 33.6507 24.3429 32.9001 25.0934L31.3141 26.6774C31.5381 27.5174 31.6241 28.3874 31.5701 29.2514L34.3141 26.5074C35.4394 25.3821 36.0716 23.8559 36.0716 22.2644C36.0716 20.673 35.4394 19.1467 34.3141 18.0214C33.1888 16.8961 31.6625 16.2639 30.0711 16.2639C28.4797 16.2639 26.9534 16.8961 25.8281 18.0214L22.1721 21.6774Z" fill="black"/>
<path d="M29.0001 31.3336C29.4351 30.4243 29.6332 29.4199 29.5761 28.4136L29.2421 28.7476C28.7466 29.2449 28.1283 29.6023 27.4501 29.7836C27.2688 30.4618 26.9114 31.0801 26.4141 31.5756L26.0801 31.9096C27.0861 31.9661 28.0903 31.7688 29.0001 31.3356V31.3336Z" fill="black"/>
</svg>
