<svg width="51" height="51" viewBox="0 0 51 51" fill="none" xmlns="http://www.w3.org/2000/svg">
<path d="M47 27C47 39.7025 36.7025 50 24 50C11.2975 50 1 39.7025 1 27C1 14.2975 11.2975 4 24 4C36.7025 4 47 14.2975 47 27Z" fill="#FFFEFE" stroke="black" stroke-width="2"/>
<path d="M47 27C47 39.7025 36.7025 50 24 50C11.2975 50 1 39.7025 1 27C1 14.2975 11.2975 4 24 4C36.7025 4 47 14.2975 47 27Z" stroke="black" stroke-width="2"/>
<path d="M24 15.5454C17.6744 15.5454 12.5454 20.6744 12.5454 27C12.5454 33.3255 17.6744 38.4545 24 38.4545C30.3255 38.4545 35.4545 33.3255 35.4545 27C35.4545 20.6744 30.3255 15.5454 24 15.5454ZM29.5048 24.1798C29.5125 24.3 29.5125 24.4252 29.5125 24.548C29.5125 28.3014 26.6539 32.625 21.4304 32.625C19.8196 32.625 18.3264 32.1571 17.0684 31.3517C17.2985 31.3772 17.5184 31.3875 17.7536 31.3875C19.0832 31.3875 20.3054 30.9375 21.2795 30.1755C20.0318 30.15 18.9835 29.3318 18.6255 28.2068C19.0627 28.2707 19.4565 28.2707 19.9065 28.1556C19.264 28.0251 18.6866 27.6762 18.2722 27.1682C17.8579 26.6601 17.6322 26.0243 17.6335 25.3687V25.3329C18.0093 25.5451 18.4517 25.6755 18.9144 25.6934C18.5254 25.4341 18.2064 25.0829 17.9856 24.6708C17.7648 24.2587 17.6491 23.7984 17.6488 23.3309C17.6488 22.8017 17.7869 22.3184 18.0349 21.8991C18.748 22.777 19.6378 23.4949 20.6466 24.0063C21.6554 24.5178 22.7604 24.8112 23.89 24.8676C23.4886 22.9372 24.9306 21.375 26.6642 21.375C27.4823 21.375 28.2187 21.7176 28.7377 22.2698C29.3795 22.1497 29.9931 21.9093 30.5403 21.5872C30.3281 22.2443 29.8832 22.7991 29.2926 23.1494C29.8653 23.088 30.4176 22.9295 30.9289 22.7071C30.5429 23.2747 30.0596 23.7784 29.5048 24.1798Z" fill="black"/>
<path fill-rule="evenodd" clip-rule="evenodd" d="M35 3.5L32 6.5C34.8333 9.83333 40.5 16.6 40.5 17C40.5 17.4 43.8333 14.5 45.5 13L45.2149 12.7421L50 7L47 3.5H35Z" fill="#F7F7F7"/>
<path d="M47.25 2.5H34.75L31 6.875L41 18.75L51 6.875L47.25 2.5ZM36.8 6.25H33.1875L35.0875 4.025L36.8 6.25ZM39.025 6.25L41 3.95L42.975 6.25H39.025ZM43.5 7.5L41 15.85L38.5 7.5H43.5ZM37.575 7.5L39.9375 15.55L33.1625 7.5H37.575ZM44.4375 7.5H48.85L42.0625 15.55L44.4375 7.5ZM45.2125 6.25L46.925 4.025L48.8125 6.25H45.1875H45.2125ZM46 3.75L44.2 6.0125L42.375 3.75H46ZM37.7875 6.0375L36 3.75H39.625L37.7875 6.0375Z" fill="black"/>
</svg>
